<svg width="32" height="32" viewBox="0 0 32 32" fill="none" xmlns="http://www.w3.org/2000/svg">
  <defs>
    <linearGradient id="bg-gradient" x1="0%" y1="0%" x2="100%" y2="100%">
      <stop offset="0%" style="stop-color:#3B82F6;stop-opacity:1" />
      <stop offset="100%" style="stop-color:#8B5CF6;stop-opacity:1" />
    </linearGradient>
    <linearGradient id="arrow-gradient" x1="0%" y1="0%" x2="100%" y2="100%">
      <stop offset="0%" style="stop-color:#10B981;stop-opacity:1" />
      <stop offset="100%" style="stop-color:#06B6D4;stop-opacity:1" />
    </linearGradient>
  </defs>
  
  <!-- Background circle -->
  <circle cx="16" cy="16" r="15" fill="url(#bg-gradient)"/>
  
  <!-- Two user icons representing skill exchange -->
  <g transform="translate(6, 8)">
    <!-- Left person -->
    <circle cx="4" cy="4" r="2.5" fill="#ffffff" opacity="0.9"/>
    <path d="M0 12 C0 8.5 1.8 6 4 6 C6.2 6 8 8.5 8 12" fill="#ffffff" opacity="0.9"/>
    
    <!-- Right person -->
    <circle cx="16" cy="4" r="2.5" fill="#ffffff" opacity="0.9"/>
    <path d="M12 12 C12 8.5 13.8 6 16 6 C18.2 6 20 8.5 20 12" fill="#ffffff" opacity="0.9"/>
  </g>
  
  <!-- Exchange arrows -->
  <g transform="translate(8, 14)">
    <!-- Arrow pointing right -->
    <path d="M2 2 L8 2 L6 0 M8 2 L6 4" stroke="url(#arrow-gradient)" stroke-width="1.5" fill="none" stroke-linecap="round"/>
    <!-- Arrow pointing left -->
    <path d="M14 6 L8 6 L10 8 M8 6 L10 4" stroke="url(#arrow-gradient)" stroke-width="1.5" fill="none" stroke-linecap="round"/>
  </g>
  
  <!-- Small skill icons -->
  <circle cx="10" cy="8" r="1" fill="#10B981"/>
  <rect x="21" y="7" width="2" height="2" rx="0.5" fill="#06B6D4"/>
</svg>
